# xmcd CD database file generated by OrangeCD 5.1
#
# Track frame offsets:
#	150
#	13148
#	25166
#	37374
#	49276
#	61531
#	74452
#	86517
#	97742
#	109707
#	120334
#	132865
#	144987
#	156758
#	170533
#	183292
#	196793
#	210845
#	223312
#	235260
#	247913
#	260462
#	273855
#	287632
#	301427
#
# Disc length: 4205 seconds
#
# Revision: 2
# Processed by: cddbd v1.4PL0 Copyright (c) Steve Scherf et al.
# Submitted via: OrangeCD 5.1
#
DISCID=59106b19
DTITLE=Hopkins, Lightnin' - All The Classics 1946 - 1951 [CDC)
DYEAR=2002
DGENRE=Blues
TTITLE0=Ain't It A Shame
TTITLE1=Tim Moore's Farm
TTITLE2=You Don't Know
TTITLE3=Treat Me Kind
TTITLE4=Somebody's Got To Go
TTITLE5=Baby Please Don't Go
TTITLE6=Death Bells
TTITLE7=Mad With You
TTITLE8=Airplane Blues
TTITLE9=Unsuccessful Blues
TTITLE10=Rollin' Woman Blues
TTITLE11=Jail House Blues
TTITLE12='T' Model Blues
TTITLE13=Traveler's Blues
TTITLE14=Lightnin's Boogie
TTITLE15=Unkind Blues
TTITLE16=Trying To Find A Friend
TTITLE17=Fast Life
TTITLE18=European Blues
TTITLE19=Automobile
TTITLE20=Zologo
TTITLE21=Organ Boogie
TTITLE22=Automobile Blues
TTITLE23=Old Woman Blues
TTITLE24=Untrue Blues
EXTD=
EXTT0=
EXTT1=
EXTT2=
EXTT3=
EXTT4=
EXTT5=
EXTT6=
EXTT7=
EXTT8=
EXTT9=
EXTT10=
EXTT11=
EXTT12=
EXTT13=
EXTT14=
EXTT15=
EXTT16=
EXTT17=
EXTT18=
EXTT19=
EXTT20=
EXTT21=
EXTT22=
EXTT23=
EXTT24=
PLAYORDER=
